<svg xmlns="http://www.w3.org/2000/svg" viewBox="0 0 64 64"><defs fill="#fff"/><path d="m24,36.5c0,1.29.11,2.51.29,3.7-1.91.52-4.01.8-6.29.8-2.05,0-3.95-.22-5.69-.63-3.01,2.27-6.75,3.63-10.81,3.63l-1.5-2.25,5.03-5.03c-3.23-2.86-5.03-7.04-5.03-12.22C0,14.32,6.89,8,18,8c8.61,0,14.67,3.81,16.96,10.25-6.89,3.21-10.96,9.69-10.96,18.25Zm40,0c0-10.18-6.89-16.5-18-16.5s-18,6.32-18,16.5,6.89,16.5,18,16.5c2.05,0,3.95-.22,5.69-.63,3.01,2.27,6.75,3.63,10.81,3.63l1.5-2.25-5.03-5.03c3.23-2.86,5.03-7.04,5.03-12.22Z" fill="#fff"/></svg>